<mxfile host="app.diagrams.net" agent="Mozilla/5.0 (Windows NT 10.0; Win64; x64) AppleWebKit/537.36 (KHTML, like Gecko) Chrome/136.0.0.0 Safari/537.36 Edg/136.0.0.0" version="27.0.9">
  <diagram id="C5RBs43oDa-KdzZeNtuy" name="Page-1">
    <mxGraphModel dx="1547" dy="320" grid="1" gridSize="10" guides="1" tooltips="1" connect="1" arrows="1" fold="1" page="1" pageScale="1" pageWidth="827" pageHeight="1169" math="0" shadow="0">
      <root>
        <mxCell id="WIyWlLk6GJQsqaUBKTNV-0" />
        <mxCell id="WIyWlLk6GJQsqaUBKTNV-1" parent="WIyWlLk6GJQsqaUBKTNV-0" />
        <mxCell id="Y5JTs4bzOULmujebIDzi-0" value="Khởi động hệ thống&lt;div&gt;- Cấu hình xung nhịp&lt;/div&gt;&lt;div&gt;&lt;span style=&quot;background-color: transparent; color: light-dark(rgb(0, 0, 0), rgb(255, 255, 255));&quot;&gt;- Khởi tạo GPIO, UART, SPT ...&lt;/span&gt;&lt;/div&gt;" style="rounded=1;whiteSpace=wrap;html=1;align=left;" vertex="1" parent="WIyWlLk6GJQsqaUBKTNV-1">
          <mxGeometry x="-750" y="100" width="180" height="60" as="geometry" />
        </mxCell>
        <mxCell id="Y5JTs4bzOULmujebIDzi-10" style="edgeStyle=orthogonalEdgeStyle;rounded=0;orthogonalLoop=1;jettySize=auto;html=1;exitX=0.5;exitY=1;exitDx=0;exitDy=0;entryX=0.5;entryY=0;entryDx=0;entryDy=0;" edge="1" parent="WIyWlLk6GJQsqaUBKTNV-1" source="Y5JTs4bzOULmujebIDzi-1" target="Y5JTs4bzOULmujebIDzi-2">
          <mxGeometry relative="1" as="geometry" />
        </mxCell>
        <mxCell id="Y5JTs4bzOULmujebIDzi-1" value="Khởi tạo các thiết bị&lt;div&gt;- LCD&lt;/div&gt;&lt;div&gt;- Cảm biến DHT22&lt;/div&gt;&lt;div&gt;- D3 PM2.5&lt;/div&gt;&lt;div&gt;- GPS NEO-6M&lt;/div&gt;&lt;div&gt;- ESP32&lt;/div&gt;" style="rounded=1;whiteSpace=wrap;html=1;align=left;" vertex="1" parent="WIyWlLk6GJQsqaUBKTNV-1">
          <mxGeometry x="-490" y="80" width="140" height="100" as="geometry" />
        </mxCell>
        <mxCell id="Y5JTs4bzOULmujebIDzi-11" style="edgeStyle=orthogonalEdgeStyle;rounded=0;orthogonalLoop=1;jettySize=auto;html=1;exitX=0;exitY=0.5;exitDx=0;exitDy=0;entryX=1;entryY=0.5;entryDx=0;entryDy=0;" edge="1" parent="WIyWlLk6GJQsqaUBKTNV-1" source="Y5JTs4bzOULmujebIDzi-2" target="Y5JTs4bzOULmujebIDzi-3">
          <mxGeometry relative="1" as="geometry" />
        </mxCell>
        <mxCell id="Y5JTs4bzOULmujebIDzi-2" value="Đọc dữ liệu từ cảm biến&lt;div&gt;- Nhiệt độ, độ ẩm&lt;/div&gt;&lt;div&gt;- Mật độ bụi&lt;/div&gt;&lt;div&gt;- Toạ độ GPS&lt;/div&gt;" style="rounded=1;whiteSpace=wrap;html=1;align=left;" vertex="1" parent="WIyWlLk6GJQsqaUBKTNV-1">
          <mxGeometry x="-490" y="220" width="140" height="70" as="geometry" />
        </mxCell>
        <mxCell id="Y5JTs4bzOULmujebIDzi-12" style="edgeStyle=orthogonalEdgeStyle;rounded=0;orthogonalLoop=1;jettySize=auto;html=1;exitX=0.5;exitY=1;exitDx=0;exitDy=0;entryX=0.5;entryY=0;entryDx=0;entryDy=0;" edge="1" parent="WIyWlLk6GJQsqaUBKTNV-1" source="Y5JTs4bzOULmujebIDzi-3" target="Y5JTs4bzOULmujebIDzi-4">
          <mxGeometry relative="1" as="geometry" />
        </mxCell>
        <mxCell id="Y5JTs4bzOULmujebIDzi-3" value="Hiển thị LCD&lt;div&gt;- Các thông số môi trường&lt;/div&gt;&lt;div&gt;- Toạ độ GPS&lt;/div&gt;&lt;div&gt;- Chuỗi Json khi gửi&lt;/div&gt;" style="rounded=1;whiteSpace=wrap;html=1;align=left;" vertex="1" parent="WIyWlLk6GJQsqaUBKTNV-1">
          <mxGeometry x="-730" y="215" width="140" height="80" as="geometry" />
        </mxCell>
        <mxCell id="Y5JTs4bzOULmujebIDzi-13" style="edgeStyle=orthogonalEdgeStyle;rounded=0;orthogonalLoop=1;jettySize=auto;html=1;exitX=1;exitY=0.5;exitDx=0;exitDy=0;entryX=0;entryY=0.5;entryDx=0;entryDy=0;" edge="1" parent="WIyWlLk6GJQsqaUBKTNV-1" source="Y5JTs4bzOULmujebIDzi-4" target="Y5JTs4bzOULmujebIDzi-5">
          <mxGeometry relative="1" as="geometry" />
        </mxCell>
        <mxCell id="Y5JTs4bzOULmujebIDzi-4" value="Gửi dữ liệu qua ESP32 với UART" style="rounded=1;whiteSpace=wrap;html=1;" vertex="1" parent="WIyWlLk6GJQsqaUBKTNV-1">
          <mxGeometry x="-730" y="330" width="140" height="65" as="geometry" />
        </mxCell>
        <mxCell id="Y5JTs4bzOULmujebIDzi-14" style="edgeStyle=orthogonalEdgeStyle;rounded=0;orthogonalLoop=1;jettySize=auto;html=1;exitX=0.5;exitY=1;exitDx=0;exitDy=0;entryX=0.5;entryY=0;entryDx=0;entryDy=0;" edge="1" parent="WIyWlLk6GJQsqaUBKTNV-1" source="Y5JTs4bzOULmujebIDzi-5" target="Y5JTs4bzOULmujebIDzi-6">
          <mxGeometry relative="1" as="geometry" />
        </mxCell>
        <mxCell id="Y5JTs4bzOULmujebIDzi-5" value="ESP32 nhận và phân tích chuỗi Json, lấy dữ liệu&amp;nbsp;" style="rounded=1;whiteSpace=wrap;html=1;" vertex="1" parent="WIyWlLk6GJQsqaUBKTNV-1">
          <mxGeometry x="-490" y="332.5" width="140" height="60" as="geometry" />
        </mxCell>
        <mxCell id="Y5JTs4bzOULmujebIDzi-15" style="edgeStyle=orthogonalEdgeStyle;rounded=0;orthogonalLoop=1;jettySize=auto;html=1;exitX=1;exitY=0.5;exitDx=0;exitDy=0;entryX=1;entryY=0.5;entryDx=0;entryDy=0;" edge="1" parent="WIyWlLk6GJQsqaUBKTNV-1" source="Y5JTs4bzOULmujebIDzi-6" target="Y5JTs4bzOULmujebIDzi-2">
          <mxGeometry relative="1" as="geometry">
            <mxPoint x="-290" y="250" as="targetPoint" />
          </mxGeometry>
        </mxCell>
        <mxCell id="Y5JTs4bzOULmujebIDzi-6" value="ESP32 gửi dữ liệu lên server(Google Sheet, Blynk)" style="rounded=1;whiteSpace=wrap;html=1;" vertex="1" parent="WIyWlLk6GJQsqaUBKTNV-1">
          <mxGeometry x="-490" y="420" width="140" height="60" as="geometry" />
        </mxCell>
        <mxCell id="Y5JTs4bzOULmujebIDzi-7" value="" style="endArrow=classic;html=1;rounded=0;exitX=1;exitY=0.5;exitDx=0;exitDy=0;entryX=0;entryY=0.5;entryDx=0;entryDy=0;" edge="1" parent="WIyWlLk6GJQsqaUBKTNV-1" source="Y5JTs4bzOULmujebIDzi-0" target="Y5JTs4bzOULmujebIDzi-1">
          <mxGeometry width="50" height="50" relative="1" as="geometry">
            <mxPoint x="-530" y="300" as="sourcePoint" />
            <mxPoint x="-450" y="350" as="targetPoint" />
          </mxGeometry>
        </mxCell>
      </root>
    </mxGraphModel>
  </diagram>
</mxfile>
